<svg xmlns="http://www.w3.org/2000/svg" width="1280" height="720" viewBox="0 0 1280 720">
  <rect x="0" y="0" width="1280" height="720" fill="#F8FAFC" />
  <text x="56" y="72" font-family="&quot;Microsoft YaHei&quot;, &quot;PingFang SC&quot;, Arial, sans-serif" font-size="38" font-weight="700" fill="#0F172A">Quy trình triển khai trên AWS EC2</text>
  <text x="58" y="112" font-family="&quot;Microsoft YaHei&quot;, &quot;PingFang SC&quot;, Arial, sans-serif" font-size="18" fill="#475569">Từ tên miền công khai đến các container nội bộ chạy sau Nginx.</text>

  <path fill="#FFFFFF" stroke="#CBD5E1" d="M90,156 H1190 A26,26 0 0 1 1216,182 V470 A26,26 0 0 1 1190,496 H90 A26,26 0 0 1 64,470 V182 A26,26 0 0 1 90,156 Z" />
  <line x1="154" y1="318" x2="1088" y2="318" stroke="#CBD5E1" stroke-width="3" />

  <circle cx="154" cy="318" r="36" fill="#2563EB" />
  
  <g transform="translate(136.0, 300.0) scale(1.5)" fill="none" stroke="#FFFFFF" stroke-width="2">
    <path d="M3 12a9 9 0 1 0 18 0a9 9 0 0 0 -18 0" />
    <path d="M3.6 9h16.8" />
    <path d="M3.6 15h16.8" />
    <path d="M11.5 3a17 17 0 0 0 0 18" />
    <path d="M12.5 3a17 17 0 0 1 0 18" />
  </g>
  <text x="104" y="388" font-family="&quot;Microsoft YaHei&quot;, &quot;PingFang SC&quot;, Arial, sans-serif" font-size="18" font-weight="700" fill="#0F172A">DNS</text>
  <text x="78" y="417" font-family="Consolas, &quot;Courier New&quot;, monospace" font-size="14" fill="#475569">pkiresearch.id.vn</text>
  <text x="88" y="444" font-family="Consolas, &quot;Courier New&quot;, monospace" font-size="14" fill="#475569">13.212.82.45</text>

  <polygon points="267,304 300,318 267,332" fill="#CBD5E1" />
  <circle cx="342" cy="318" r="36" fill="#2563EB" />
  
  <g transform="translate(324.0, 300.0) scale(1.5)" fill="none" stroke="#FFFFFF" stroke-width="2">
    <path d="M3 7a3 3 0 0 1 3 -3h12a3 3 0 0 1 3 3v2a3 3 0 0 1 -3 3h-12a3 3 0 0 1 -3 -3" />
    <path d="M3 15a3 3 0 0 1 3 -3h12a3 3 0 0 1 3 3v2a3 3 0 0 1 -3 3h-12a3 3 0 0 1 -3 -3l0 -2" />
    <path d="M7 8l0 .01" />
    <path d="M7 16l0 .01" />
  </g>
  <text x="291" y="388" font-family="&quot;Microsoft YaHei&quot;, &quot;PingFang SC&quot;, Arial, sans-serif" font-size="18" font-weight="700" fill="#0F172A">EC2 Instance</text>
  <text x="288" y="417" font-family="&quot;Microsoft YaHei&quot;, &quot;PingFang SC&quot;, Arial, sans-serif" font-size="15" fill="#475569">Amazon Linux 2023</text>
  <text x="300" y="444" font-family="Consolas, &quot;Courier New&quot;, monospace" font-size="14" fill="#475569">ec2-user + SSH</text>

  <polygon points="456,304 489,318 456,332" fill="#CBD5E1" />
  <circle cx="532" cy="318" r="36" fill="#2563EB" />
  
  <g transform="translate(514.0, 300.0) scale(1.5)" fill="none" stroke="#FFFFFF" stroke-width="2">
    <path d="M12 3a12 12 0 0 0 8.5 3a12 12 0 0 1 -8.5 15a12 12 0 0 1 -8.5 -15a12 12 0 0 0 8.5 -3" />
    <path d="M11 11a1 1 0 1 0 2 0a1 1 0 1 0 -2 0" />
    <path d="M12 12l0 2.5" />
  </g>
  <text x="472" y="388" font-family="&quot;Microsoft YaHei&quot;, &quot;PingFang SC&quot;, Arial, sans-serif" font-size="18" font-weight="700" fill="#0F172A">Security Group</text>
  <text x="486" y="417" font-family="Consolas, &quot;Courier New&quot;, monospace" font-size="14" fill="#475569">80 / 443 / 22</text>
  <text x="472" y="444" font-family="&quot;Microsoft YaHei&quot;, &quot;PingFang SC&quot;, Arial, sans-serif" font-size="15" fill="#475569">Chỉ mở cổng cần dùng</text>

  <polygon points="646,304 679,318 646,332" fill="#CBD5E1" />
  <circle cx="722" cy="318" r="36" fill="#00A676" />
  
  <g transform="translate(704.0, 300.0) scale(1.5)" fill="none" stroke="#FFFFFF" stroke-width="2">
    <path d="M12 15a3 3 0 1 0 6 0a3 3 0 1 0 -6 0" />
    <path d="M13 17.5v4.5l2 -1.5l2 1.5v-4.5" />
    <path d="M10 19h-5a2 2 0 0 1 -2 -2v-10c0 -1.1 .9 -2 2 -2h14a2 2 0 0 1 2 2v10a2 2 0 0 1 -1 1.73" />
    <path d="M6 9l12 0" />
    <path d="M6 12l3 0" />
    <path d="M6 15l2 0" />
  </g>
  <text x="672" y="388" font-family="&quot;Microsoft YaHei&quot;, &quot;PingFang SC&quot;, Arial, sans-serif" font-size="18" font-weight="700" fill="#0F172A">HTTPS</text>
  <text x="646" y="417" font-family="&quot;Microsoft YaHei&quot;, &quot;PingFang SC&quot;, Arial, sans-serif" font-size="15" fill="#475569">Let's Encrypt Certbot</text>
  <text x="670" y="444" font-family="Consolas, &quot;Courier New&quot;, monospace" font-size="14" fill="#475569">valid đến 2026-09-05</text>

  <polygon points="836,304 869,318 836,332" fill="#CBD5E1" />
  <circle cx="912" cy="318" r="36" fill="#0F172A" />
  
  <g transform="translate(894.0, 300.0) scale(1.5)" fill="none" stroke="#FFFFFF" stroke-width="2">
    <path d="M22 12.54c-1.804 -.345 -2.701 -1.08 -3.523 -2.94c-.487 .696 -1.102 1.568 -.92 2.4c.028 .238 -.32 1 -.557 1h-14c0 5.208 3.164 7 6.196 7c4.124 .022 7.828 -1.376 9.854 -5c1.146 -.101 2.296 -1.505 2.95 -2.46" />
    <path d="M5 10h3v3h-3l0 -3" />
    <path d="M8 10h3v3h-3l0 -3" />
    <path d="M11 10h3v3h-3l0 -3" />
    <path d="M8 7h3v3h-3l0 -3" />
    <path d="M11 7h3v3h-3l0 -3" />
    <path d="M11 4h3v3h-3l0 -3" />
    <path d="M4.571 18c1.5 0 2.047 -.074 2.958 -.78" />
    <path d="M10 16l0 .01" />
  </g>
  <text x="852" y="388" font-family="&quot;Microsoft YaHei&quot;, &quot;PingFang SC&quot;, Arial, sans-serif" font-size="18" font-weight="700" fill="#0F172A">Docker Compose</text>
  <text x="850" y="417" font-family="&quot;Microsoft YaHei&quot;, &quot;PingFang SC&quot;, Arial, sans-serif" font-size="15" fill="#475569">Nginx, FE, BE, DB</text>
  <text x="874" y="444" font-family="Consolas, &quot;Courier New&quot;, monospace" font-size="14" fill="#475569">internal network</text>

  <polygon points="1026,304 1059,318 1026,332" fill="#CBD5E1" />
  <circle cx="1088" cy="318" r="36" fill="#00A676" />
  
  <g transform="translate(1070.0, 300.0) scale(1.5)" fill="none" stroke="#FFFFFF" stroke-width="2">
    <path d="M5 12l5 5l10 -10" />
  </g>
  <text x="1048" y="388" font-family="&quot;Microsoft YaHei&quot;, &quot;PingFang SC&quot;, Arial, sans-serif" font-size="18" font-weight="700" fill="#0F172A">Go-live</text>
  <text x="1016" y="417" font-family="Consolas, &quot;Courier New&quot;, monospace" font-size="14" fill="#475569">HTTP/2 200 OK</text>
  <text x="1010" y="444" font-family="Consolas, &quot;Courier New&quot;, monospace" font-size="14" fill="#475569">/api/health = ok</text>

  <path fill="#2563EB" fill-opacity="0.08" stroke="#2563EB" d="M98,536 H412 A18,18 0 0 1 430,554 V610 A18,18 0 0 1 412,628 H98 A18,18 0 0 1 80,610 V554 A18,18 0 0 1 98,536 Z" />
  <text x="106" y="572" font-family="&quot;Microsoft YaHei&quot;, &quot;PingFang SC&quot;, Arial, sans-serif" font-size="17" font-weight="700" fill="#0F172A">Vai trò IaaS</text>
  <text x="106" y="602" font-family="&quot;Microsoft YaHei&quot;, &quot;PingFang SC&quot;, Arial, sans-serif" font-size="15" fill="#475569">AWS cung cấp máy ảo, IP, network, firewall.</text>
  <path fill="#F59E0B" fill-opacity="0.10" stroke="#F59E0B" d="M482,536 H796 A18,18 0 0 1 814,554 V610 A18,18 0 0 1 796,628 H482 A18,18 0 0 1 464,610 V554 A18,18 0 0 1 482,536 Z" />
  <text x="490" y="572" font-family="&quot;Microsoft YaHei&quot;, &quot;PingFang SC&quot;, Arial, sans-serif" font-size="17" font-weight="700" fill="#0F172A">Phần nhóm tự vận hành</text>
  <text x="490" y="602" font-family="&quot;Microsoft YaHei&quot;, &quot;PingFang SC&quot;, Arial, sans-serif" font-size="15" fill="#475569">OS, Docker, Nginx, SSL renewal, backup.</text>
  <path fill="#00A676" fill-opacity="0.08" stroke="#00A676" d="M866,536 H1180 A18,18 0 0 1 1198,554 V610 A18,18 0 0 1 1180,628 H866 A18,18 0 0 1 848,610 V554 A18,18 0 0 1 866,536 Z" />
  <text x="874" y="572" font-family="&quot;Microsoft YaHei&quot;, &quot;PingFang SC&quot;, Arial, sans-serif" font-size="17" font-weight="700" fill="#0F172A">Kết quả công khai</text>
  <text x="874" y="602" font-family="Consolas, &quot;Courier New&quot;, monospace" font-size="15" fill="#475569">https://pkiresearch.id.vn</text>

  <text x="56" y="690" font-family="&quot;Microsoft YaHei&quot;, &quot;PingFang SC&quot;, Arial, sans-serif" font-size="12" fill="#94A3B8">07 · AWS Deployment Flow</text>
</svg>